<svg width="15" height="10" viewBox="0 0 15 10" fill="none" xmlns="http://www.w3.org/2000/svg"
     class="iconindex___1AjOo">
    <path d="M0 8.857C0 9.488.503 10 1.123 10h12.754C14.497 10 15 9.488 15 8.857v-.962H0v.962zM13.877 0H1.123C.503 0 0 .512 0 1.143v.962h15v-.962C15 .512 14.497 0 13.877 0z"
          fill="#C8414B"></path>
    <path d="M15 2.105H0v5.79h15v-5.79z" fill="#FFD250"></path>
    <path d="M6.336 5l.22-1.004a.147.147 0 0 0-.143-.18H6.26a.147.147 0 0 0-.142.18L6.337 5z" fill="#C8414B"></path>
    <path d="M6.594 4.473h-.517V6.71h.517V4.473z" fill="#F5F5F5"></path>
    <path d="M6.725 4.21h-.776v.266h.776v-.265z" fill="#FAB446"></path>
    <path d="M6.724 5H5.43v.265h1.294V5zM6.724 6.052l-.776-.263v-.263l.776.263v.263zM2.456 5l.22-1.004a.147.147 0 0 0-.142-.18h-.155a.147.147 0 0 0-.142.18L2.457 5z"
          fill="#C8414B"></path>
    <path d="M3.363 4.21a.261.261 0 0 0-.259.264v1.71c0 .32.293.921 1.293.921s1.293-.6 1.293-.92V4.473a.261.261 0 0 0-.258-.263h-2.07z"
          fill="#F5F5F5"></path>
    <path d="M4.397 5.526H3.104V4.474c0-.145.116-.263.259-.263h1.034v1.315zM4.396 5.526H5.69v.658c0 .364-.29.658-.647.658a.652.652 0 0 1-.647-.658v-.658z"
          fill="#C8414B"></path>
    <path d="M3.104 5.526h1.293v.658c0 .364-.29.658-.646.658a.652.652 0 0 1-.647-.658v-.658z" fill="#FAB446"></path>
    <path d="M4.139 6.708V5.526H3.88V6.83a.635.635 0 0 0 .259-.121zM3.62 6.829V5.526h-.258v1.182a.635.635 0 0 0 .259.12z"
          fill="#C8414B"></path>
    <path d="M4.138 5h-.776v.265h.776V5z" fill="#FFB441"></path>
    <path d="M4.138 4.473h-.776v.266h.776v-.266z" fill="#FAB446"></path>
    <path d="M4.01 4.63h-.517v.478h.517V4.63z" fill="#FAB446"></path>
    <path d="M2.716 4.473h-.517V6.71h.517V4.473z" fill="#F5F5F5"></path>
    <path d="M2.845 6.58H2.07v.265h.776v-.266zM2.845 4.21h-.776v.266h.776v-.265z" fill="#FAB446"></path>
    <path d="M2.974 6.842H1.939v.265h1.035v-.265z" fill="#5064AA"></path>
    <path d="M6.776 6.58H6v.265h.776v-.266z" fill="#FAB446"></path>
    <path d="M6.853 6.842H5.82v.265h1.034v-.265z" fill="#5064AA"></path>
    <path d="M5.172 3.947H3.62v.266h1.552v-.266z" fill="#FAB446"></path>
    <path d="M4.526 3.158h-.258v.79h.258v-.79z" fill="#FFB441"></path>
    <path d="M4.138 3.553a.392.392 0 0 1-.388-.395c0-.218.174-.395.388-.395.214 0 .388.177.388.395a.392.392 0 0 1-.388.395zm0-.527a.13.13 0 0 0-.13.132.13.13 0 0 0 .13.131.13.13 0 0 0 .13-.131.13.13 0 0 0-.13-.132z"
          fill="#F5F5F5"></path>
    <path d="M4.655 3.553a.392.392 0 0 1-.387-.395c0-.218.174-.395.388-.395.213 0 .387.177.387.395a.392.392 0 0 1-.388.395zm0-.527a.13.13 0 0 0-.129.132.13.13 0 0 0 .13.131.13.13 0 0 0 .129-.131.13.13 0 0 0-.13-.132z"
          fill="#F5F5F5"></path>
    <path d="M5.173 3.818a.392.392 0 0 1-.388-.395c0-.217.174-.394.388-.394.214 0 .388.177.388.394a.392.392 0 0 1-.388.395zm0-.526a.13.13 0 0 0-.13.131.13.13 0 0 0 .13.132.13.13 0 0 0 .13-.132.13.13 0 0 0-.13-.131zM3.62 3.818a.392.392 0 0 1-.388-.395c0-.217.174-.394.388-.394.214 0 .388.177.388.394a.392.392 0 0 1-.388.395zm0-.526a.13.13 0 0 0-.129.131.13.13 0 0 0 .13.132.13.13 0 0 0 .129-.132.13.13 0 0 0-.13-.131z"
          fill="#F5F5F5"></path>
    <path d="M5.173 6.053v.131a.13.13 0 0 1-.13.132.13.13 0 0 1-.129-.132v-.131h.259zm.258-.263h-.775v.394c0 .218.174.395.387.395a.392.392 0 0 0 .388-.395V5.79z"
          fill="#FAB446"></path>
    <path d="M5.044 5.263A.261.261 0 0 1 4.785 5v-.263c0-.146.116-.263.259-.263.143 0 .258.117.258.263V5a.261.261 0 0 1-.258.263z"
          fill="#FFA0D2"></path>
    <path d="M4.396 5.92a.391.391 0 0 0 .388-.394.391.391 0 0 0-.388-.395.391.391 0 0 0-.388.395c0 .218.174.395.388.395z"
          fill="#5064AA"></path>
    <path d="M4.526 2.632h-.258v.79h.258v-.79z" fill="#FAB446"></path>
    <path d="M3.62 3.947l-.258-.263.152-.154c.234-.238.551-.372.883-.372.33 0 .648.134.883.372l.151.154-.259.263H3.621z"
          fill="#C8414B"></path>
    <path d="M4.397 3.818c.071 0 .13-.06.13-.133a.131.131 0 0 0-.13-.133c-.072 0-.13.06-.13.133 0 .074.058.133.13.133zM3.88 3.818c.07 0 .129-.06.129-.133a.131.131 0 0 0-.13-.133c-.071 0-.129.06-.129.133 0 .074.058.133.13.133zM4.913 3.818c.071 0 .13-.06.13-.133a.131.131 0 0 0-.13-.133c-.071 0-.13.06-.13.133 0 .074.059.133.13.133z"
          fill="#FFD250"></path>
    <path d="M3.362 5H2.069v.265h1.293V5zM2.07 6.053l.775-.263v-.264l-.776.264v.263z" fill="#C8414B"></path>
</svg>